<svg width="40" height="40" viewBox="0 0 40 40" fill="none" xmlns="http://www.w3.org/2000/svg">
<path d="M8.68132 21.6666H27.298L19.1646 29.8C18.5146 30.45 18.5146 31.5166 19.1646 32.1666C19.8146 32.8166 20.8646 32.8166 21.5146 32.1666L32.498 21.1833C33.148 20.5333 33.148 19.4833 32.498 18.8333L21.5313 7.8333C21.2199 7.52121 20.7972 7.34583 20.3563 7.34583C19.9155 7.34583 19.4927 7.52121 19.1813 7.8333C18.5313 8.4833 18.5313 9.5333 19.1813 10.1833L27.298 18.3333H8.68132C7.76465 18.3333 7.01465 19.0833 7.01465 20C7.01465 20.9166 7.76465 21.6666 8.68132 21.6666Z" fill="#6D7D8B"/>
</svg>
