<svg width="40" height="40" viewBox="0 0 40 40" fill="none" xmlns="http://www.w3.org/2000/svg">
<path d="M31.3188 18.3417H12.7021L20.8355 10.2083C21.4855 9.55833 21.4855 8.49166 20.8355 7.84166C20.5241 7.52958 20.1013 7.35419 19.6605 7.35419C19.2196 7.35419 18.7969 7.52958 18.4855 7.84166L7.50215 18.825C6.85215 19.475 6.85215 20.525 7.50215 21.175L18.4855 32.1583C19.1355 32.8083 20.1855 32.8083 20.8355 32.1583C21.4855 31.5083 21.4855 30.4583 20.8355 29.8083L12.7021 21.675H31.3188C32.2355 21.675 32.9855 20.925 32.9855 20.0083C32.9855 19.0917 32.2355 18.3417 31.3188 18.3417Z" fill="#6D7D8B"/>
</svg>
