<svg width="32" height="28" viewBox="0 0 32 28" fill="none" xmlns="http://www.w3.org/2000/svg">
<path fill-rule="evenodd" clip-rule="evenodd" d="M1.09559 8.17443L13.7406 1.27443C14.6406 0.794429 15.7206 0.794429 16.6206 1.27443L30.9006 9.05943C31.3806 9.32943 31.6806 9.82443 31.6806 10.3794V19.9944C31.6806 20.8194 31.0056 21.4944 30.1806 21.4944C29.3556 21.4944 28.6806 20.8194 28.6806 19.9944V11.1294L16.6206 17.7144C15.7206 18.2094 14.6406 18.2094 13.7406 17.7144L1.09559 10.8144C0.0605859 10.2444 0.0605859 8.74443 1.09559 8.17443ZM4.68059 19.9794V15.7644L13.7406 20.7144C14.6406 21.2094 15.7206 21.2094 16.6206 20.7144L25.6806 15.7644V19.9794C25.6806 21.0744 25.0806 22.0944 24.1206 22.6194L16.6206 26.7144C15.7206 27.2094 14.6406 27.2094 13.7406 26.7144L6.24059 22.6194C5.28059 22.0944 4.68059 21.0744 4.68059 19.9794Z" fill="#1A1A1A"/>
</svg>
