<svg width="37" height="36" viewBox="0 0 37 36" fill="none" xmlns="http://www.w3.org/2000/svg">
<path fill-rule="evenodd" clip-rule="evenodd" d="M4.09168 12.1744L16.7367 5.27443C17.6367 4.79443 18.7167 4.79443 19.6167 5.27443L33.8967 13.0594C34.3767 13.3294 34.6767 13.8244 34.6767 14.3794V23.9944C34.6767 24.8194 34.0017 25.4944 33.1767 25.4944C32.3517 25.4944 31.6767 24.8194 31.6767 23.9944V15.1294L19.6167 21.7144C18.7167 22.2094 17.6367 22.2094 16.7367 21.7144L4.09168 14.8144C3.05668 14.2444 3.05668 12.7444 4.09168 12.1744ZM7.67668 23.9794V19.7644L16.7367 24.7144C17.6367 25.2094 18.7167 25.2094 19.6167 24.7144L28.6767 19.7644V23.9794C28.6767 25.0744 28.0767 26.0944 27.1167 26.6194L19.6167 30.7144C18.7167 31.2094 17.6367 31.2094 16.7367 30.7144L9.23668 26.6194C8.27668 26.0944 7.67668 25.0744 7.67668 23.9794Z" fill="#1A1A1A"/>
</svg>
