<svg width="40" height="40" viewBox="0 0 40 40" fill="none" xmlns="http://www.w3.org/2000/svg">
<path fill-rule="evenodd" clip-rule="evenodd" d="M35.0044 20C35.0044 20.68 34.9444 21.32 34.8644 21.96L39.0844 25.26C39.4644 25.56 39.5644 26.1 39.3244 26.54L35.3244 33.46C35.0844 33.9 34.5644 34.08 34.1044 33.9L29.1244 31.9C28.0844 32.68 26.9644 33.36 25.7444 33.86L24.9844 39.16C24.9244 39.64 24.5044 40 24.0044 40H16.0044C15.5044 40 15.0844 39.64 15.0244 39.16L14.2644 33.86C13.0444 33.36 11.9244 32.7 10.8844 31.9L5.90442 33.9C5.46442 34.06 4.92442 33.9 4.68442 33.46L0.684424 26.54C0.444424 26.1 0.544424 25.56 0.924424 25.26L5.14442 21.96C5.06442 21.32 5.00442 20.66 5.00442 20C5.00442 19.34 5.06442 18.68 5.14442 18.04L0.924424 14.74C0.544424 14.44 0.424424 13.9 0.684424 13.46L4.68442 6.54C4.92442 6.1 5.44442 5.92 5.90442 6.1L10.8844 8.1C11.9244 7.32 13.0444 6.64 14.2644 6.14L15.0244 0.84C15.0844 0.36 15.5044 0 16.0044 0H24.0044C24.5044 0 24.9244 0.36 24.9844 0.84L25.7444 6.14C26.9644 6.64 28.0844 7.3 29.1244 8.1L34.1044 6.1C34.5444 5.94 35.0844 6.1 35.3244 6.54L39.3244 13.46C39.5644 13.9 39.4644 14.44 39.0844 14.74L34.8644 18.04C34.9444 18.68 35.0044 19.32 35.0044 20ZM13.0044 20C13.0044 23.86 16.1444 27 20.0044 27C23.8644 27 27.0044 23.86 27.0044 20C27.0044 16.14 23.8644 13 20.0044 13C16.1444 13 13.0044 16.14 13.0044 20Z" fill="#6D7D8B"/>
</svg>
