<svg width="43" height="30" viewBox="0 0 43 30" fill="none" xmlns="http://www.w3.org/2000/svg">
<path d="M41.9417 4.69398C41.451 2.84633 40.0052 1.39117 38.1695 0.897344C34.8421 0 21.4999 0 21.4999 0C21.4999 0 8.15768 0 4.83025 0.897344C2.99455 1.39125 1.54877 2.84633 1.05807 4.69398C0.166504 8.04297 0.166504 15.0303 0.166504 15.0303C0.166504 15.0303 0.166504 22.0177 1.05807 25.3666C1.54877 27.2143 2.99455 28.6088 4.83025 29.1027C8.15768 30 21.4999 30 21.4999 30C21.4999 30 34.842 30 38.1695 29.1027C40.0052 28.6088 41.451 27.2143 41.9417 25.3666C42.8332 22.0177 42.8332 15.0303 42.8332 15.0303C42.8332 15.0303 42.8332 8.04297 41.9417 4.69398ZM17.1362 21.3743V8.68633L28.2877 15.0305L17.1362 21.3743Z" fill="#EFEFEF"/>
</svg>
