<svg width="14" height="16" viewBox="0 0 14 16" fill="none" xmlns="http://www.w3.org/2000/svg">
<path fill-rule="evenodd" clip-rule="evenodd" d="M7.40578 0.117316C7.29292 0.0417675 7.16095 0.0010289 7.02581 1.92335e-05C6.89066 -0.000990436 6.75812 0.037772 6.64418 0.111626C5.46468 0.877626 3.86378 1.35415 1.04698 2.10664C0.748059 2.18669 0.483511 2.36477 0.294408 2.61324C0.105305 2.8617 0.00222835 3.16666 0.00118111 3.48075V3.56538C-0.00581889 5.74176 -0.0128189 8.12866 0.963681 10.3378L0.969981 10.3513C2.12778 12.8306 4.29638 14.5511 6.72888 15.5917C6.81548 15.6286 6.90852 15.6474 7.00244 15.6471C7.09636 15.6467 7.18925 15.6271 7.27558 15.5895C9.69758 14.5383 11.8732 12.8321 13.0317 10.3513L13.0401 10.3335C13.9942 8.13862 14.0026 5.6621 13.9998 3.48288C13.9993 3.16817 13.8964 2.86247 13.7069 2.6135C13.5175 2.36453 13.2522 2.1863 12.9526 2.10664C10.1218 1.35415 8.54328 0.877626 7.40578 0.117316ZM1.40328 3.48217C3.91628 2.81076 5.66418 2.31503 7.01658 1.54263C8.33958 2.31645 10.0784 2.8129 12.5977 3.48288L12.5998 3.48501C12.6026 5.70975 12.5746 7.87689 11.7633 9.75099C10.8323 11.7353 9.08928 13.1969 6.99908 14.1606C4.90818 13.209 3.16868 11.7368 2.23768 9.74886C1.39558 7.83919 1.39418 5.7382 1.40118 3.48501L1.40328 3.48217ZM10.3563 5.40961C10.4628 5.25926 10.5075 5.07259 10.4806 4.88932C10.4538 4.70606 10.3576 4.54066 10.2126 4.42834C10.0676 4.31602 9.88513 4.26563 9.7041 4.2879C9.52306 4.31018 9.35773 4.40335 9.24328 4.5476L6.06668 8.78371L4.75698 7.03692C4.64447 6.88686 4.47791 6.78836 4.29393 6.76309C4.10994 6.73781 3.92362 6.78783 3.77593 6.90214C3.62824 7.01645 3.5313 7.18569 3.50642 7.37262C3.48155 7.55956 3.53077 7.74888 3.64328 7.89894L5.50948 10.3883C5.57479 10.4754 5.65903 10.546 5.75562 10.5946C5.85221 10.6432 5.95854 10.6685 6.06633 10.6685C6.17412 10.6685 6.28045 10.6432 6.37704 10.5946C6.47363 10.546 6.55786 10.4754 6.62318 10.3883L10.3563 5.40961Z" fill="#00C04D"/>
</svg>
