<svg width="36" height="36" viewBox="0 0 36 36" fill="none" xmlns="http://www.w3.org/2000/svg">
<path d="M31.3232 0.5H3.75878C2.76189 0.5 1.80583 0.895088 1.10092 1.59835C0.396013 2.30161 0 3.25544 0 4.25L0 31.75C0 32.7446 0.396013 33.6984 1.10092 34.4016C1.80583 35.1049 2.76189 35.5 3.75878 35.5H14.5065V23.6008H9.57315V18H14.5065V13.7312C14.5065 8.87578 17.4039 6.19375 21.8417 6.19375C23.9669 6.19375 26.1893 6.57188 26.1893 6.57188V11.3375H23.7406C21.328 11.3375 20.5754 12.8312 20.5754 14.3633V18H25.9614L25.1 23.6008H20.5754V35.5H31.3232C32.3201 35.5 33.2761 35.1049 33.981 34.4016C34.6859 33.6984 35.082 32.7446 35.082 31.75V4.25C35.082 3.25544 34.6859 2.30161 33.981 1.59835C33.2761 0.895088 32.3201 0.5 31.3232 0.5Z" fill="#EFEFEF"/>
</svg>
